<?xml version="1.0" encoding="UTF-8" ?>
<!DOCTYPE svg PUBLIC "-//W3C//DTD SVG 1.1//EN" "http://www.w3.org/Graphics/SVG/1.1/DTD/svg11.dtd">
<svg width="23pt" height="35pt" viewBox="0 0 23 35" version="1.1" xmlns="http://www.w3.org/2000/svg">
<path fill="#ffffff" d=" M 0.00 0.00 L 23.00 0.00 L 23.00 35.00 L 0.00 35.00 L 0.00 0.00 Z" />
<path fill="#3f331f" d=" M 6.78 3.85 C 8.15 0.78 12.95 0.57 14.89 3.16 C 15.93 4.81 15.45 6.81 15.28 8.61 C 16.46 9.09 18.63 9.22 18.24 11.06 C 17.71 15.34 19.35 20.51 16.06 23.93 C 14.86 26.39 15.39 29.34 15.07 32.00 C 12.34 32.00 9.61 32.00 6.88 32.00 C 6.73 29.43 6.76 26.86 6.78 24.28 C 5.83 23.59 4.88 22.91 3.93 22.22 C 4.10 17.92 3.63 13.63 3.83 9.33 C 4.58 9.23 6.07 9.03 6.82 8.92 C 6.60 7.26 5.78 5.42 6.78 3.85 Z" />
<path fill="#ffffff" d=" M 7.53 5.37 C 7.46 3.73 9.67 2.01 11.14 3.06 C 10.23 4.19 9.15 5.50 7.53 5.37 Z" />
<path fill="#ffcc00" d=" M 11.14 3.06 L 11.65 2.53 C 12.20 2.69 13.31 3.01 13.86 3.17 C 12.50 5.46 11.13 7.75 9.73 10.01 C 8.62 8.58 7.63 7.06 6.84 5.43 L 7.53 5.37 C 9.15 5.50 10.23 4.19 11.14 3.06 Z" />
<path fill="#d26f0a" d=" M 13.86 3.17 C 14.78 4.90 15.37 7.17 13.73 8.71 C 12.46 9.31 11.08 9.64 9.73 10.01 C 11.13 7.75 12.50 5.46 13.86 3.17 Z" />
<path fill="#e7a062" d=" M 5.22 9.56 C 5.88 9.71 7.21 10.01 7.88 10.15 C 7.96 10.59 8.12 11.45 8.20 11.88 C 8.21 15.40 7.87 18.90 7.64 22.41 L 7.54 21.52 C 7.19 17.72 6.81 13.88 5.46 10.28 L 5.22 9.56 Z" />
<path fill="#dd5511" d=" M 7.88 10.15 C 9.98 10.39 12.14 10.31 14.18 10.91 C 14.77 11.02 15.94 11.25 16.53 11.36 C 15.71 14.59 15.77 17.95 16.02 21.25 L 16.07 22.11 C 15.62 22.07 14.74 21.99 14.30 21.95 C 14.34 18.92 14.33 15.88 14.28 12.85 C 13.23 14.10 12.20 15.36 11.16 16.62 C 10.14 15.06 9.12 13.50 8.20 11.88 C 8.12 11.45 7.96 10.59 7.88 10.15 Z" />
<path fill="#ffd699" d=" M 14.18 10.91 C 14.81 9.53 15.66 9.44 16.71 10.64 L 16.53 11.36 C 15.94 11.25 14.77 11.02 14.18 10.91 Z" />
<path fill="#e99f09" d=" M 5.46 10.28 C 6.81 13.88 7.19 17.72 7.54 21.52 C 6.98 21.69 5.86 22.02 5.30 22.18 C 5.07 18.23 4.67 14.21 5.46 10.28 Z" />
<path fill="#ffcc00" d=" M 16.53 11.36 L 16.71 10.64 C 17.21 14.18 16.94 17.80 16.02 21.25 C 15.77 17.95 15.71 14.59 16.53 11.36 Z" />
<path fill="#ffcc00" d=" M 8.20 11.88 C 9.12 13.50 10.14 15.06 11.16 16.62 C 12.20 15.36 13.23 14.10 14.28 12.85 C 14.33 15.88 14.34 18.92 14.30 21.95 C 14.27 24.97 14.11 27.98 13.93 30.99 C 11.99 30.99 10.05 30.99 8.11 31.00 C 7.97 28.14 7.60 25.28 7.64 22.41 C 7.87 18.90 8.21 15.40 8.20 11.88 Z" />
</svg>
